nColumns=19
nRows=89
DataType=double
version=3
OpenSimVersion=4.1
endheader
time	ground_force_1_vx	ground_force_1_vy	ground_force_1_vz	ground_force_1_px	ground_force_1_py	ground_force_1_pz	ground_force_1_mx	ground_force_1_my	ground_force_1_mz	ground_force_2_vx	ground_force_2_vy	ground_force_2_vz	ground_force_2_px	ground_force_2_py	ground_force_2_pz	ground_force_2_mx	ground_force_2_my	ground_force_2_mz
0.03	0	0	0	-0.00166639	0	-0.000974353	0	0	0	-178.701	1142.43	-183.215	0.847032	0	-0.373282	-0	16.0927	-0
0.04	0	0	0	-0.00166639	0	-0.000974353	0	0	0	-152.554	1263.92	-18.4137	0.830841	0	-0.341448	-0	4.22675	-0
0.05	0	0	0	-0.00166639	0	-0.000974355	0	0	0	-109.913	1355.02	52.6522	0.807743	0	-0.327571	0	-4.90861	0
0.06	0	0	0	-0.00166639	0	-0.000974359	0	0	0	-61.4951	1396.15	35.4433	0.779366	0	-0.326169	0	-7.43779	0
0.07	0	0	0	-0.00166639	0	-0.000974364	0	0	0	-21.0474	1397.84	17.1923	0.747561	0	-0.330283	0	-3.72826	0
0.08	0	0	0	-0.00166639	0	-0.000974371	0	0	0	13.3208	1375.39	24.8224	0.714057	0	-0.334438	-0	1.86887	-0
0.09	0	0	0	-0.00166639	0	-0.000974379	0	0	0	49.9418	1331.21	29.0556	0.679897	0	-0.335935	-0	4.58698	-0
0.1	0	0	0	-0.00166638	0	-0.000974388	0	0	0	88.1099	1257.87	21.3061	0.644905	0	-0.334726	-0	2.86921	-0
0.11	0	0	0	-0.00166638	0	-0.000974399	0	0	0	126.374	1145.67	5.88514	0.607794	0	-0.332083	0	-1.05354	0
0.12	0	0	0	-0.00166638	0	-0.000974411	0	0	0	166.998	985.721	-13.4624	0.566941	0	-0.329262	0	-3.5983	0
0.13	0	0	0	-0.00166638	0	-0.000974425	0	0	0	198.074	780.084	-26.103	0.521226	0	-0.32703	0	-2.7808	0
0.14	0	0	0	-0.00166637	0	-0.00097444	0	0	0	191.984	559.261	-30.2718	0.470001	0	-0.325836	-0	0.603496	-0
0.15	0	0	0	-0.00166637	0	-0.000974457	0	0	0	145.817	361.335	-29.9988	0.410187	0	-0.326117	-0	4.00642	-0
0.16	0	0	0	-0.00166637	0	-0.000974475	0	0	0	94.7395	206.252	-22.1652	0.325224	0	-0.328526	-0	5.22521	-0
0.17	0	0	0	-0.00166636	0	-0.000974494	0	0	0	56.4846	102.028	-9.33787	0.126767	0	-0.333718	-0	3.98807	-0
0.18	0	0	0	-0.00166636	0	-0.000974515	0	0	0	28.1441	44.2643	-1.49073	-2.23416	0	-0.26736	-0	1.92209	-0
0.19	0	0	0	-0.00166635	0	-0.000974537	0	0	0	8.10798	18.1147	-2.24872	-0.00166636	0	-0.000974517	0	0	0
0.2	0	0	0	-0.00166635	0	-0.000974561	0	0	0	-1.78317	10.3882	-4.05915	-0.00166636	0	-0.000974538	0	0	0
0.21	0	0	0	-0.00166634	0	-0.000974586	0	0	0	0	0	0	-0.00166635	0	-0.000974561	0	0	0
0.22	0	0	0	-0.00166634	0	-0.000974613	0	0	0	0	0	0	-0.00166635	0	-0.000974584	0	0	0
0.23	0	0	0	-0.00166633	0	-0.000974641	0	0	0	0	0	0	-0.00166634	0	-0.000974609	0	0	0
0.24	0	0	0	-0.00166632	0	-0.00097467	0	0	0	0	0	0	-0.00166634	0	-0.000974635	0	0	0
0.25	-0.21625	21.9802	-2.21875	-0.00166632	0	-0.000974701	0	0	0	0	0	0	-0.00166633	0	-0.000974663	0	0	0
0.26	-2.92479	83.3462	-4.90951	0.845667	0	-0.20461	-0	1.33372	-0	0	0	0	-0.00166633	0	-0.000974691	0	0	0
0.27	-8.84721	292.872	-16.4623	0.966454	0	-0.260073	-0	0.236762	-0	0	0	0	-0.00166632	0	-0.000974721	0	0	0
0.28	-23.9186	740.211	-19.5982	0.971318	0	-0.262216	-0	1.91157	-0	0	0	0	-0.00166631	0	-0.000974752	0	0	0
0.29	-71.2462	1232.39	19.9551	0.972533	0	-0.262829	-0	4.71329	-0	0	0	0	-0.00166631	0	-0.000974785	0	0	0
0.3	-156.748	1398.65	81.2807	0.971194	0	-0.262888	-0	5.75925	-0	0	0	0	-0.0016663	0	-0.000974818	0	0	0
0.31	-250.563	1298.03	66.7286	0.963388	0	-0.26209	-0	3.80513	-0	0	0	0	-0.00166629	0	-0.000974853	0	0	0
0.32	-301.168	1235.33	-26.2961	0.941226	0	-0.259559	-0	0.206148	-0	0	0	0	-0.00166629	0	-0.000974889	0	0	0
0.33	-279.151	1300.05	-84.5953	0.901415	0	-0.255113	0	-2.72841	0	0	0	0	-0.00166628	0	-0.000974926	0	0	0
0.34	-212.586	1414.4	-77.6111	0.854366	0	-0.250508	0	-4.00518	0	0	0	0	-0.00166627	0	-0.000974965	0	0	0
0.35	-134.684	1489.29	-75.1869	0.811221	0	-0.247537	0	-4.26901	0	0	0	0	-0.00166626	0	-0.000975004	0	0	0
0.36	-63.0583	1500.71	-95.9542	0.772077	0	-0.246331	0	-4.36456	0	0	0	0	-0.00166626	0	-0.000975045	0	0	0
0.37	1.92097	1471.01	-95.2445	0.731834	0	-0.246277	0	-4.38276	0	0	0	0	-0.00166625	0	-0.000975087	0	0	0
0.38	69.8281	1415.67	-67.0086	0.68683	0	-0.246949	0	-4.048	0	0	0	0	-0.00166624	0	-0.00097513	0	0	0
0.39	145.418	1332.37	-38.4069	0.637349	0	-0.248116	0	-3.40002	0	0	0	0	-0.00166623	0	-0.000975175	0	0	0
0.4	216.549	1219.65	-14.1201	0.587085	0	-0.249449	0	-2.83441	0	0	0	0	-0.00166622	0	-0.00097522	0	0	0
0.41	268.336	1073.59	9.71214	0.540119	0	-0.250467	0	-2.63724	0	0	0	0	-0.00166621	0	-0.000975267	0	0	0
0.42	288.868	888.087	29.8457	0.498003	0	-0.250702	0	-2.63661	0	0	0	0	-0.0016662	0	-0.000975314	0	0	0
0.43	266.055	668.956	42.5402	0.458798	0	-0.249755	0	-2.3183	0	0	0	0	-0.00166619	0	-0.000975363	0	0	0
0.44	203.925	444.293	40.5534	0.416382	0	-0.247008	0	-1.25662	0	0	0	0	-0.00166618	0	-0.000975413	0	0	0
0.45	131.824	252.765	22.746	0.355591	0	-0.240438	-0	0.518985	-0	0	0	0	-0.00166617	0	-0.000975464	0	0	0
0.46	73.7066	119.038	4.70617	0.2272	0	-0.220359	-0	2.42132	-0	0	0	0	-0.00166616	0	-0.000975517	0	0	0
0.47	33.3962	47.0204	-0.124108	-0.162911	0	-0.0615257	-0	3.43295	-0	0	0	0	-0.00166615	0	-0.00097557	0	0	0
0.48	9.18677	20.4849	1.51999	-0.00166608	0	-0.00097578	0	0	0	0	0	0	-0.00166614	0	-0.000975625	0	0	0
0.49	-2.78694	11.6243	-0.306551	-0.00166607	0	-0.000975843	0	0	0	0	0	0	-0.00166613	0	-0.00097568	0	0	0
0.5	0	0	0	-0.00166605	0	-0.000975906	0	0	0	0	0	0	-0.00166612	0	-0.000975737	0	0	0
0.51	0	0	0	-0.00166604	0	-0.000975971	0	0	0	0	0	0	-0.00166611	0	-0.000975794	0	0	0
0.52	0	0	0	-0.00166602	0	-0.000976037	0	0	0	0	0	0	-0.0016661	0	-0.000975853	0	0	0
0.53	0	0	0	-0.00166601	0	-0.000976104	0	0	0	-2.53422	18.3715	-3.66109	-0.00166609	0	-0.000975913	0	0	0
0.54	0	0	0	-0.00166599	0	-0.000976173	0	0	0	-11.5163	66.4383	-8.90944	1.72468	0	-0.103972	-0	1.97848	-0
0.55	0	0	0	-0.00166598	0	-0.000976242	0	0	0	-30.2596	240.013	-14.1426	1.01834	0	-0.327069	0	-1.0983	0
0.56	0	0	0	-0.00166596	0	-0.000976313	0	0	0	-60.6829	637.122	-12.8256	1.02658	0	-0.319936	0	-3.10488	0
0.57	0	0	0	-0.00166595	0	-0.000976385	0	0	0	-102.021	1117.61	22.9868	1.02682	0	-0.316883	0	-4.60266	0
0.58	0	0	0	-0.00166593	0	-0.000976458	0	0	0	-153.518	1310.22	53.4278	1.02367	0	-0.316127	0	-6.72939	0
0.59	0	0	0	-0.00166591	0	-0.000976532	0	0	0	-203.973	1192.25	-20.5821	1.0145	0	-0.318028	0	-8.92913	0
0.6	0	0	0	-0.0016659	0	-0.000976607	0	0	0	-240.909	1066.78	-111.205	0.991979	0	-0.322421	0	-9.59137	0
0.61	0	0	0	-0.00166588	0	-0.000976683	0	0	0	-247.37	1081.84	-41.7759	0.950895	0	-0.326998	0	-8.29144	0
0.62	0	0	0	-0.00166586	0	-0.00097676	0	0	0	-206.817	1189.13	96.754	0.901586	0	-0.329384	0	-6.20456	0
0.63	0	0	0	-0.00166585	0	-0.000976839	0	0	0	-136.408	1284.09	105.191	0.859309	0	-0.330375	0	-4.37389	0
0.64	0	0	0	-0.00166583	0	-0.000976918	0	0	0	-78.5492	1324.26	26.1726	0.825838	0	-0.331251	0	-2.78408	0
0.65	0	0	0	-0.00166581	0	-0.000976999	0	0	0	-45.6364	1333.76	14.8068	0.795546	0	-0.332011	0	-1.21708	0
0.66	0	0	0	-0.00166579	0	-0.00097708	0	0	0	-16.772	1332.76	56.9014	0.763571	0	-0.332505	-0	0.037452	-0
0.67	0	0	0	-0.00166578	0	-0.000977163	0	0	0	20.0518	1312.44	55.7287	0.727781	0	-0.332837	-0	0.508676	-0
0.68	0	0	0	-0.00166576	0	-0.000977246	0	0	0	61.9838	1265.45	22.0004	0.688343	0	-0.332829	-0	0.012667	-0
0.69	0	0	0	-0.00166574	0	-0.000977331	0	0	0	108.289	1194.05	4.5757	0.646272	0	-0.332059	0	-1.20196	0
0.7	0	0	0	-0.00166572	0	-0.000977416	0	0	0	161.962	1088.87	-1.72648	0.602162	0	-0.330523	0	-2.38606	0
0.71	0	0	0	-0.0016657	0	-0.000977503	0	0	0	215.953	935.396	-12.4362	0.5562	0	-0.328825	0	-2.47097	0
0.72	0	0	0	-0.00166568	0	-0.00097759	0	0	0	239.244	741.008	-24.2912	0.508457	0	-0.327819	0	-0.811345	0
0.73	0	0	0	-0.00166566	0	-0.000977678	0	0	0	210.257	531.507	-31.5145	0.457564	0	-0.328281	-0	2.06398	-0
0.74	0	0	0	-0.00166564	0	-0.000977768	0	0	0	152.953	336.057	-29.7551	0.396548	0	-0.33073	-0	4.69737	-0
0.75	0	0	0	-0.00166562	0	-0.000977858	0	0	0	99.1779	185.125	-17.8506	0.299663	0	-0.335235	-0	5.90943	-0
0.76	0	0	0	-0.0016656	0	-0.000977949	0	0	0	54.6446	87.89	-4.23164	0.0355112	0	-0.337626	-0	5.64309	-0
0.77	0	0	0	-0.00166558	0	-0.000978041	0	0	0	19.8805	36.4656	-1.96831	10.0247	0	-1.97487	-0	4.47193	-0
0.78	0	0	0	-0.00166556	0	-0.000978134	0	0	0	-0.353831	14.1982	-6.10119	-0.00166573	0	-0.000977721	0	0	0
0.79	0	0	0	-0.00166554	0	-0.000978227	0	0	0	0	0	0	-0.00166571	0	-0.000977804	0	0	0
0.8	0	0	0	-0.00166552	0	-0.000978322	0	0	0	0	0	0	-0.0016657	0	-0.000977888	0	0	0
0.81	0	0	0	-0.0016655	0	-0.000978417	0	0	0	0	0	0	-0.00166568	0	-0.000977973	0	0	0
0.82	0	0	0	-0.00166548	0	-0.000978513	0	0	0	0	0	0	-0.00166566	0	-0.000978059	0	0	0
0.83	-3.91754	15.3787	-2.56465	-0.00166546	0	-0.00097861	0	0	0	0	0	0	-0.00166565	0	-0.000978145	0	0	0
0.84	-3.9928	47.7718	-1.51461	1.10384	0	-0.288529	-0	2.51014	-0	0	0	0	-0.00166563	0	-0.000978232	0	0	0
0.85	-7.32672	178.567	-12.7518	1.03596	0	-0.261662	-0	0.513514	-0	0	0	0	-0.00166561	0	-0.00097832	0	0	0
0.86	-20.177	521.807	-26.5724	1.04119	0	-0.265647	-0	1.00888	-0	0	0	0	-0.00166559	0	-0.000978408	0	0	0
0.87	-66.2971	1021.31	-3.89306	1.04096	0	-0.266687	-0	4.72026	-0	0	0	0	-0.00166558	0	-0.000978498	0	0	0
0.88	-156.853	1324.65	71.2715	1.03952	0	-0.267283	-0	8.40622	-0	0	0	0	-0.00166556	0	-0.000978587	0	0	0
0.89	-251.972	1281.79	107.192	1.03446	0	-0.267543	-0	8.66101	-0	0	0	0	-0.00166554	0	-0.000978677	0	0	0
0.9	-314.059	1170.04	31.3865	1.01862	0	-0.266705	-0	5.46781	-0	0	0	0	-0.00166552	0	-0.000978768	0	0	0
0.91	-323.594	1191.02	-58.906	0.984613	0	-0.263705	-0	1.77841	-0	0	0	0	-0.0016655	0	-0.00097886	0	0	0
